#!OML:ASF H:\Terrain\Walking\May29\JustinRory\Justin.ASF
:FULLY-SPECIFIED
:DEGREES
19
root 12.2668 17.6369 4.86098 -158.884 -71.5434 163.382
lowerback 7.24726 -2.80513 -10.528
upperback 3.72625 -4.51926 2.97996
thorax 0.931162 -2.56545 9.3501
lowerneck 1.20907 -15.4039 -17.5176
upperneck 16.9629 -24.7499 16.7236
head 9.44745 -12.1892 5.67023
rclavicle 3.35946e-014 -2.94201e-014
rhumerus -21.0479 -21.8702 -57.4784
rradius 36.3981
rwrist -20.7743
rhand -12.6153 25.9325
rfingers 7.12502
rthumb 13.464 -3.61229
lclavicle 3.35946e-014 -2.94201e-014
lhumerus -21.0514 -2.58546 87.8297
lradius 36.8152
lwrist -4.64393
lhand 0.339673 38.4455
lfingers 7.12502
lthumb 25.9157 66.6991
rfemur -21.616 -2.92543 -0.504598
rtibia 32.4087
rfoot -12.3234 -13.6478
rtoes 11.412
lfemur -10.1901 11.5893 -22.1136
ltibia 30.0103
lfoot -19.2155 6.46568
ltoes -9.74047
20
root 12.2589 17.621 4.81541 -158.094 -71.6677 162.483
lowerback 7.34498 -2.8247 -10.3665
upperback 3.8295 -4.54814 2.97778
thorax 0.978119 -2.5872 9.25812
lowerneck 1.28045 -15.4978 -17.2869
upperneck 16.8426 -24.8066 16.4921
head 9.3385 -12.2158 5.56162
rclavicle 8.18993e-014 -1.74931e-014
rhumerus -19.8495 -22.2591 -56.9403
rradius 36.0088
rwrist -20.4872
rhand -13.0383 25.9355
rfingers 7.12502
rthumb 13.0563 -3.63586
lclavicle 8.18993e-014 -1.74931e-014
lhumerus -20.9799 -3.50738 88.1655
lradius 37.429
lwrist -4.27745
lhand -0.213613 38.1413
lfingers 7.12502
lthumb 25.3858 66.4713
rfemur -21.2172 -3.09068 -1.11484
rtibia 31.6237
rfoot -12.1073 -13.9494
rtoes 9.11639
lfemur -10.0492 11.9539 -22.1387
ltibia 29.9956
lfoot -19.4388 6.06897
ltoes -10.5054
21
root 12.2525 17.611 4.76795 -157.483 -71.7156 161.777
lowerback 7.46124 -2.77574 -10.0997
upperback 3.94195 -4.48074 2.96787
thorax 0.9914 -2.55666 9.09552
lowerneck 1.2896 -15.6401 -17.2768
upperneck 16.831 -24.9976 16.4524
head 9.36193 -12.3008 5.51099
rclavicle 1.11319e-014 7.95139e-015
rhumerus -18.907 -22.795 -56.369
rradius 35.8079
rwrist -20.0378
rhand -12.9435 26.7431
rfingers 7.12502
rthumb 13.1477 -2.82241
lclavicle 1.11319e-014 7.95139e-015
lhumerus -20.9738 -4.83688 88.5053
lradius 38.2526
lwrist -3.99332
lhand -0.686808 38.1616
lfingers 7.12502
lthumb 24.9324 66.5553
rfemur -20.8473 -3.04751 -1.69271
rtibia 30.8083
rfoot -12.0714 -14.1123
rtoes 8.01953
lfemur -9.91508 11.7528 -22.1856
ltibia 29.9713
lfoot -19.4438 6.2374
ltoes -10.1627
22
root 12.2481 17.6085 4.71543 -156.873 -71.6356 161.002
lowerback 7.75708 -2.71728 -10.0259
upperback 4.02999 -4.4324 2.9953
thorax 0.904871 -2.53406 9.09926
lowerneck 1.29551 -15.692 -17.27
upperneck 16.7132 -25.0476 16.481
head 9.33284 -12.3195 5.51126
rclavicle 3.99557e-014 -1.59028e-015
rhumerus -17.8327 -23.1491 -55.8755
rradius 35.6735
rwrist -19.6121
rhand -13.3928 27.1079
rfingers 7.12502
rthumb 12.7145 -2.485
lclavicle 3.99557e-014 -1.59028e-015
lhumerus -20.9807 -6.04503 88.8366
lradius 39.0346
lwrist -3.65766
lhand -1.11267 38.3244
lfingers 7.12502
lthumb 24.5242 66.774
rfemur -20.4087 -2.6863 -2.35215
rtibia 29.9156
rfoot -12.2721 -14.2322
rtoes 8.79179
lfemur -9.72045 11.5419 -22.2809
ltibia 30.0074
lfoot -19.2322 6.39054
ltoes -8.85839
23
root 12.2511 17.6072 4.66844 -157.161 -71.5735 161.253
lowerback 7.99823 -2.7625 -9.83358
upperback 4.10137 -4.51059 3.22857
thorax 0.868721 -2.57993 9.25991
lowerneck 1.36581 -15.6016 -17.1946
upperneck 16.3621 -24.7809 16.3064
head 9.11325 -12.2042 5.50601
rclavicle -4.33351e-014 -1.66979e-014
rhumerus -16.3477 -23.259 -55.5267
rradius 35.4794
rwrist -19.1358
rhand -13.4205 27.1516
rfingers 7.12502
rthumb 12.6878 -2.44301
lclavicle -4.33351e-014 -1.66979e-014
lhumerus -20.9798 -6.7404 89.1581
lradius 39.7666
lwrist -3.10428
lhand -0.956329 38.1734
lfingers 7.12502
lthumb 24.6741 66.6026
rfemur -20.0696 -1.98671 -2.66618
rtibia 28.9355
rfoot -12.4543 -14.6933
rtoes 9.67633
lfemur -9.69714 11.7819 -22.037
ltibia 30.1634
lfoot -19.1103 6.31484
ltoes -9.21906
